<svg width="32" height="32" viewBox="0 0 32 32" fill="none" xmlns="http://www.w3.org/2000/svg">
<path d="M8.01115 2.66699H20.0111C20.7184 2.66699 21.3967 2.94794 21.8968 3.44804C22.3969 3.94814 22.6778 4.62641 22.6778 5.33366V8.00033H20.0111V5.33366H8.01115V26.667H20.0111V24.0003H22.6778V26.667C22.6778 27.3742 22.3969 28.0525 21.8968 28.5526C21.3967 29.0527 20.7184 29.3337 20.0111 29.3337H8.01115C7.30391 29.3337 6.62563 29.0527 6.12553 28.5526C5.62543 28.0525 5.34448 27.3742 5.34448 26.667V5.33366C5.34448 4.62641 5.62543 3.94814 6.12553 3.44804C6.62563 2.94794 7.30391 2.66699 8.01115 2.66699Z" fill="black" fill-opacity="0.5"/>
<path d="M21.4585 20.7863L23.3385 22.6663L30.0051 15.9997L23.3385 9.33301L21.4585 11.213L24.8985 14.6663H12.0051V17.333H24.8985L21.4585 20.7863Z" fill="black" fill-opacity="0.5"/>
</svg>
