<svg width="12" height="19" viewBox="0 0 12 19" fill="none" xmlns="http://www.w3.org/2000/svg">
<path d="M1.00221 18.5432C0.755293 18.2963 0.631836 18.004 0.631836 17.6662C0.631836 17.3291 0.755293 17.0371 1.00221 16.7901L8.23677 9.55557L0.977515 2.29631C0.747062 2.06586 0.631836 1.77779 0.631836 1.43211C0.631836 1.08643 0.755293 0.790136 1.00221 0.543222C1.24912 0.296308 1.54147 0.172852 1.87924 0.172852C2.21636 0.172852 2.50838 0.296308 2.75529 0.543222L11.0516 8.86421C11.1504 8.96298 11.2205 9.06997 11.262 9.1852C11.3028 9.30042 11.3232 9.42388 11.3232 9.55557C11.3232 9.68725 11.3028 9.81071 11.262 9.92594C11.2205 10.0412 11.1504 10.1482 11.0516 10.2469L2.7306 18.5679C2.50015 18.7984 2.21636 18.9136 1.87924 18.9136C1.54147 18.9136 1.24912 18.7901 1.00221 18.5432Z" fill="#929292"/>
</svg>
